<svg width="113" height="113" viewBox="0 0 113 113" fill="none" xmlns="http://www.w3.org/2000/svg">
<rect width="113" height="113" rx="16" fill="#967BB6"/>
<g clip-path="url(#clip0_248_2871)">
<path d="M19.752 35.16C19.752 34.776 19.6027 34.456 19.304 34.2H27.752C27.496 34.4987 27.368 34.8827 27.368 35.352C27.368 36.9733 27.56 38.552 27.944 40.088C28.3707 41.624 28.7547 43.16 29.096 44.696C29.7787 47.896 30.44 51.0533 31.08 54.168C31.72 57.2827 32.3813 60.44 33.064 63.64C33.2773 64.664 33.576 65.9227 33.96 67.416C34.344 68.8667 34.792 70.3387 35.304 71.832C35.8587 73.2827 36.4773 74.6693 37.16 75.992C37.8427 77.272 38.568 78.2747 39.336 79H24.488C24.616 78.616 24.7227 78.0827 24.808 77.4C24.8933 76.6747 24.936 75.9067 24.936 75.096C24.9787 74.2853 25 73.496 25 72.728C25 71.96 25 71.3627 25 70.936C25 69.2293 24.9573 67.544 24.872 65.88C24.8293 64.1733 24.7227 62.4667 24.552 60.76C22.376 61.2293 20.2213 61.8907 18.088 62.744C15.9547 63.5973 14.056 64.7707 12.392 66.264C12.3067 66.9467 12.2427 67.6293 12.2 68.312C12.1573 68.952 12.136 69.6133 12.136 70.296C12.136 70.8933 12.1573 71.6827 12.2 72.664C12.2853 73.6453 12.456 74.6053 12.712 75.544C12.968 76.4827 13.352 77.2933 13.864 77.976C14.376 78.6587 15.0587 79 15.912 79H1C1.256 78.4027 1.72533 77.336 2.408 75.8C3.09067 74.2213 3.88 72.3867 4.776 70.296C5.71467 68.1627 6.73867 65.8373 7.848 63.32C8.95733 60.8027 10.0667 58.264 11.176 55.704C12.2853 53.144 13.352 50.6693 14.376 48.28C15.4 45.848 16.3173 43.6933 17.128 41.816C17.9387 39.9387 18.5787 38.4027 19.048 37.208C19.5173 35.9707 19.752 35.288 19.752 35.16ZM21.16 40.728C20.264 42.7333 19.368 44.7387 18.472 46.744C17.576 48.7493 16.7227 50.776 15.912 52.824C15.1013 54.8293 14.3973 56.8987 13.8 59.032C13.2027 61.1227 12.7547 63.256 12.456 65.432L15.208 59.352H24.424C24.0827 56.1947 23.592 53.08 22.952 50.008C22.3547 46.8933 21.7573 43.8 21.16 40.728Z" fill="#FEFFFD"/>
<path d="M55.136 79C55.904 78.0187 56.5867 76.6533 57.184 74.904C57.696 73.4107 58.1653 71.448 58.592 69.016C59.0187 66.584 59.232 63.5547 59.232 59.928V59.288H35.872V58.84C37.9627 56.8773 39.84 54.6587 41.504 52.184C42.912 50.008 44.192 47.4053 45.344 44.376C46.5387 41.3467 47.136 37.9547 47.136 34.2H55.776C55.776 36.8453 55.4347 39.256 54.752 41.432C54.0693 43.5653 53.1947 45.4853 52.128 47.192C51.0613 48.8987 49.8453 50.392 48.48 51.672C47.1573 52.952 45.8133 54.0613 44.448 55H59.232V44.248C59.232 42.328 59.36 40.728 59.616 39.448C59.872 38.168 60.1707 37.144 60.512 36.376C60.8533 35.4373 61.2587 34.712 61.728 34.2H69.792C69.3227 34.7547 68.896 35.48 68.512 36.376C68.1707 37.1867 67.872 38.232 67.616 39.512C67.36 40.7493 67.232 42.328 67.232 44.248V56.024C67.7013 55.896 68.128 55.704 68.512 55.448C68.9387 55.192 69.3013 54.936 69.6 54.68C69.9413 54.424 70.2613 54.1253 70.56 53.784V57.176V60.568C70.2613 60.2267 69.9413 59.9067 69.6 59.608C69.3013 59.3947 68.9387 59.16 68.512 58.904C68.128 58.648 67.7013 58.456 67.232 58.328V60.76C67.3173 64.216 67.5733 67.1173 68 69.464C68.4267 71.8107 68.896 73.688 69.408 75.096C70.0053 76.76 70.6667 78.0613 71.392 79H67.232H59.232H55.136Z" fill="#FEFFFD"/>
<path d="M91.752 35.16C91.752 34.776 91.6027 34.456 91.304 34.2H99.752C99.496 34.4987 99.368 34.8827 99.368 35.352C99.368 36.9733 99.56 38.552 99.944 40.088C100.371 41.624 100.755 43.16 101.096 44.696C101.779 47.896 102.44 51.0533 103.08 54.168C103.72 57.2827 104.381 60.44 105.064 63.64C105.277 64.664 105.576 65.9227 105.96 67.416C106.344 68.8667 106.792 70.3387 107.304 71.832C107.859 73.2827 108.477 74.6693 109.16 75.992C109.843 77.272 110.568 78.2747 111.336 79H96.488C96.616 78.616 96.7227 78.0827 96.808 77.4C96.8933 76.6747 96.936 75.9067 96.936 75.096C96.9787 74.2853 97 73.496 97 72.728C97 71.96 97 71.3627 97 70.936C97 69.2293 96.9573 67.544 96.872 65.88C96.8293 64.1733 96.7227 62.4667 96.552 60.76C94.376 61.2293 92.2213 61.8907 90.088 62.744C87.9547 63.5973 86.056 64.7707 84.392 66.264C84.3067 66.9467 84.2427 67.6293 84.2 68.312C84.1573 68.952 84.136 69.6133 84.136 70.296C84.136 70.8933 84.1573 71.6827 84.2 72.664C84.2853 73.6453 84.456 74.6053 84.712 75.544C84.968 76.4827 85.352 77.2933 85.864 77.976C86.376 78.6587 87.0587 79 87.912 79H73C73.256 78.4027 73.7253 77.336 74.408 75.8C75.0907 74.2213 75.88 72.3867 76.776 70.296C77.7147 68.1627 78.7387 65.8373 79.848 63.32C80.9573 60.8027 82.0667 58.264 83.176 55.704C84.2853 53.144 85.352 50.6693 86.376 48.28C87.4 45.848 88.3173 43.6933 89.128 41.816C89.9387 39.9387 90.5787 38.4027 91.048 37.208C91.5173 35.9707 91.752 35.288 91.752 35.16ZM93.16 40.728C92.264 42.7333 91.368 44.7387 90.472 46.744C89.576 48.7493 88.7227 50.776 87.912 52.824C87.1013 54.8293 86.3973 56.8987 85.8 59.032C85.2027 61.1227 84.7547 63.256 84.456 65.432L87.208 59.352H96.424C96.0827 56.1947 95.592 53.08 94.952 50.008C94.3547 46.8933 93.7573 43.8 93.16 40.728Z" fill="#FEFFFD"/>
</g>
<defs>
<clipPath id="clip0_248_2871">
<rect width="111" height="52" fill="white" transform="translate(1 31)"/>
</clipPath>
</defs>
</svg>
