<svg width="10" height="9" viewBox="0 0 10 9" fill="none" xmlns="http://www.w3.org/2000/svg">
<path d="M6.06046 4.50008L9.02921 1.53133C9.17011 1.39068 9.24936 1.19982 9.24954 1.00074C9.24971 0.801662 9.1708 0.610664 9.03015 0.469768C8.8895 0.328872 8.69864 0.249618 8.49956 0.249442C8.30048 0.249267 8.10948 0.328183 7.96859 0.46883L4.99984 3.43758L2.03109 0.46883C1.89019 0.327934 1.69909 0.248779 1.49984 0.248779C1.30058 0.248779 1.10948 0.327934 0.968586 0.46883C0.82769 0.609727 0.748535 0.800823 0.748535 1.00008C0.748535 1.19934 0.82769 1.39043 0.968586 1.53133L3.93734 4.50008L0.968586 7.46883C0.82769 7.60973 0.748535 7.80082 0.748535 8.00008C0.748535 8.19934 0.82769 8.39043 0.968586 8.53133C1.10948 8.67223 1.30058 8.75138 1.49984 8.75138C1.69909 8.75138 1.89019 8.67223 2.03109 8.53133L4.99984 5.56258L7.96859 8.53133C8.10948 8.67223 8.30058 8.75138 8.49984 8.75138C8.69909 8.75138 8.89019 8.67223 9.03109 8.53133C9.17198 8.39043 9.25114 8.19934 9.25114 8.00008C9.25114 7.80082 9.17198 7.60973 9.03109 7.46883L6.06046 4.50008Z" fill="#5B4B6D"/>
</svg>
