<svg width="21" height="20" viewBox="0 0 21 20" fill="none" xmlns="http://www.w3.org/2000/svg">
<path fill-rule="evenodd" clip-rule="evenodd" d="M11.0893 13.089C10.933 13.2453 10.7211 13.333 10.5001 13.333C10.2792 13.333 10.0672 13.2453 9.91096 13.089L5.19679 8.37488C5.1172 8.29801 5.05371 8.20605 5.01004 8.10438C4.96636 8.00271 4.94338 7.89336 4.94241 7.78271C4.94145 7.67206 4.96254 7.56233 5.00444 7.45992C5.04634 7.3575 5.10822 7.26446 5.18646 7.18622C5.2647 7.10797 5.35775 7.04609 5.46016 7.00419C5.56257 6.96229 5.67231 6.94121 5.78296 6.94217C5.89361 6.94313 6.00296 6.96612 6.10463 7.00979C6.2063 7.05347 6.29825 7.11695 6.37512 7.19655L10.5001 11.3215L14.6251 7.19655C14.7823 7.04475 14.9928 6.96075 15.2113 6.96265C15.4298 6.96455 15.6388 7.05219 15.7933 7.2067C15.9478 7.3612 16.0355 7.57021 16.0374 7.78871C16.0393 8.00721 15.9553 8.21771 15.8035 8.37488L11.0893 13.089Z" fill="#967BB6"/>
</svg>
