<svg width="12" height="7" viewBox="0 0 12 7" fill="none" xmlns="http://www.w3.org/2000/svg">
<path fill-rule="evenodd" clip-rule="evenodd" d="M6.58929 6.58905C6.43302 6.74527 6.22109 6.83303 6.00012 6.83303C5.77915 6.83303 5.56723 6.74527 5.41096 6.58905L0.69679 1.87488C0.617198 1.79801 0.553713 1.70605 0.510039 1.60438C0.466364 1.50271 0.443376 1.39336 0.442414 1.28271C0.441453 1.17206 0.462538 1.06233 0.504438 0.959917C0.546339 0.857504 0.608217 0.76446 0.686461 0.686216C0.764705 0.607972 0.857748 0.546095 0.960161 0.504194C1.06257 0.462293 1.17231 0.441209 1.28296 0.44217C1.39361 0.443132 1.50296 0.46612 1.60463 0.509794C1.7063 0.553469 1.79825 0.616953 1.87512 0.696545L6.00012 4.82155L10.1251 0.696545C10.2823 0.544747 10.4928 0.460752 10.7113 0.46265C10.9298 0.464549 11.1388 0.55219 11.2933 0.706696C11.4478 0.861203 11.5355 1.07021 11.5374 1.28871C11.5393 1.50721 11.4553 1.71771 11.3035 1.87488L6.58929 6.58905Z" fill="#5B4B6D"/>
</svg>
