<svg width="33" height="32" viewBox="0 0 33 32" fill="none" xmlns="http://www.w3.org/2000/svg">
<path d="M24.9003 7.61339C24.7769 7.48978 24.6304 7.39172 24.4691 7.32481C24.3078 7.2579 24.1349 7.22346 23.9603 7.22346C23.7857 7.22346 23.6128 7.2579 23.4515 7.32481C23.2902 7.39172 23.1436 7.48978 23.0203 7.61339L16.5003 14.1201L9.9803 7.60005C9.85686 7.47661 9.71031 7.37869 9.54902 7.31188C9.38774 7.24508 9.21487 7.21069 9.0403 7.21069C8.86572 7.21069 8.69286 7.24508 8.53157 7.31188C8.37029 7.37869 8.22374 7.47661 8.1003 7.60005C7.97686 7.7235 7.87894 7.87004 7.81213 8.03133C7.74532 8.19261 7.71094 8.36548 7.71094 8.54005C7.71094 8.71463 7.74532 8.88749 7.81213 9.04878C7.87894 9.21006 7.97686 9.35661 8.1003 9.48005L14.6203 16.0001L8.1003 22.5201C7.97686 22.6435 7.87894 22.79 7.81213 22.9513C7.74532 23.1126 7.71094 23.2855 7.71094 23.4601C7.71094 23.6346 7.74532 23.8075 7.81213 23.9688C7.87894 24.1301 7.97686 24.2766 8.1003 24.4001C8.22374 24.5235 8.37029 24.6214 8.53157 24.6882C8.69286 24.755 8.86572 24.7894 9.0403 24.7894C9.21487 24.7894 9.38774 24.755 9.54902 24.6882C9.71031 24.6214 9.85686 24.5235 9.9803 24.4001L16.5003 17.8801L23.0203 24.4001C23.1437 24.5235 23.2903 24.6214 23.4516 24.6882C23.6129 24.755 23.7857 24.7894 23.9603 24.7894C24.1349 24.7894 24.3077 24.755 24.469 24.6882C24.6303 24.6214 24.7769 24.5235 24.9003 24.4001C25.0237 24.2766 25.1217 24.1301 25.1885 23.9688C25.2553 23.8075 25.2897 23.6346 25.2897 23.4601C25.2897 23.2855 25.2553 23.1126 25.1885 22.9513C25.1217 22.79 25.0237 22.6435 24.9003 22.5201L18.3803 16.0001L24.9003 9.48005C25.407 8.97339 25.407 8.12005 24.9003 7.61339Z" fill="#6F7D60"/>
</svg>
