<svg width="33" height="32" viewBox="0 0 33 32" fill="none" xmlns="http://www.w3.org/2000/svg">
<path d="M11.167 16H21.8337M12.5003 10.6667H8.50033C7.08584 10.6667 5.72928 11.2286 4.72909 12.2288C3.7289 13.229 3.16699 14.5855 3.16699 16C3.16699 17.4145 3.7289 18.7711 4.72909 19.7713C5.72928 20.7715 7.08584 21.3334 8.50033 21.3334H12.5003M20.5003 10.6667H24.5003C25.9148 10.6667 27.2714 11.2286 28.2716 12.2288C29.2718 13.229 29.8337 14.5855 29.8337 16C29.8337 17.4145 29.2718 18.7711 28.2716 19.7713C27.2714 20.7715 25.9148 21.3334 24.5003 21.3334H20.5003" stroke="#967BB6" stroke-width="2.66667" stroke-linecap="round" stroke-linejoin="round"/>
</svg>
