<svg width="17" height="16" viewBox="0 0 17 16" fill="none" xmlns="http://www.w3.org/2000/svg">
<path fill-rule="evenodd" clip-rule="evenodd" d="M6.02876 8.47136C5.90378 8.34634 5.83357 8.1768 5.83357 8.00002C5.83357 7.82325 5.90378 7.65371 6.02876 7.52869L9.8001 3.75736C9.86159 3.69369 9.93516 3.6429 10.0165 3.60796C10.0978 3.57302 10.1853 3.55463 10.2738 3.55386C10.3623 3.55309 10.4501 3.56996 10.5321 3.60348C10.614 3.637 10.6884 3.6865 10.751 3.7491C10.8136 3.81169 10.8631 3.88612 10.8966 3.96806C10.9302 4.04999 10.947 4.13777 10.9463 4.22629C10.9455 4.31481 10.9271 4.40229 10.8922 4.48363C10.8572 4.56496 10.8064 4.63853 10.7428 4.70003L7.44276 8.00002L10.7428 11.3C10.8642 11.4258 10.9314 11.5942 10.9299 11.769C10.9284 11.9438 10.8582 12.111 10.7346 12.2346C10.611 12.3582 10.4438 12.4283 10.269 12.4298C10.0942 12.4313 9.92583 12.3641 9.8001 12.2427L6.02876 8.47136Z" fill="#3B2C35" fill-opacity="0.7"/>
</svg>
