<svg width="136" height="64" viewBox="0 0 136 64" fill="none" xmlns="http://www.w3.org/2000/svg">
<g clip-path="url(#clip0_700_2376)">
<path d="M19.252 4.16C19.252 3.776 19.1027 3.456 18.804 3.2H27.252C26.996 3.49866 26.868 3.88266 26.868 4.352C26.868 5.97333 27.06 7.552 27.444 9.088C27.8707 10.624 28.2547 12.16 28.596 13.696C29.2787 16.896 29.94 20.0533 30.58 23.168C31.22 26.2827 31.8813 29.44 32.564 32.64C32.7773 33.664 33.076 34.9227 33.46 36.416C33.844 37.8667 34.292 39.3387 34.804 40.832C35.3587 42.2827 35.9773 43.6693 36.66 44.992C37.3427 46.272 38.068 47.2747 38.836 48H23.988C24.116 47.616 24.2227 47.0827 24.308 46.4C24.3933 45.6747 24.436 44.9067 24.436 44.096C24.4787 43.2853 24.5 42.496 24.5 41.728C24.5 40.96 24.5 40.3627 24.5 39.936C24.5 38.2293 24.4573 36.544 24.372 34.88C24.3293 33.1733 24.2227 31.4667 24.052 29.76C21.876 30.2293 19.7213 30.8907 17.588 31.744C15.4547 32.5973 13.556 33.7707 11.892 35.264C11.8067 35.9467 11.7427 36.6293 11.7 37.312C11.6573 37.952 11.636 38.6133 11.636 39.296C11.636 39.8933 11.6573 40.6827 11.7 41.664C11.7853 42.6453 11.956 43.6053 12.212 44.544C12.468 45.4827 12.852 46.2933 13.364 46.976C13.876 47.6587 14.5587 48 15.412 48H0.5C0.756 47.4027 1.22533 46.336 1.908 44.8C2.59067 43.2213 3.38 41.3867 4.276 39.296C5.21467 37.1627 6.23867 34.8373 7.348 32.32C8.45733 29.8027 9.56667 27.264 10.676 24.704C11.7853 22.144 12.852 19.6693 13.876 17.28C14.9 14.848 15.8173 12.6933 16.628 10.816C17.4387 8.93867 18.0787 7.40267 18.548 6.208C19.0173 4.97066 19.252 4.288 19.252 4.16ZM20.66 9.728C19.764 11.7333 18.868 13.7387 17.972 15.744C17.076 17.7493 16.2227 19.776 15.412 21.824C14.6013 23.8293 13.8973 25.8987 13.3 28.032C12.7027 30.1227 12.2547 32.256 11.956 34.432L14.708 28.352H23.924C23.5827 25.1947 23.092 22.08 22.452 19.008C21.8547 15.8933 21.2573 12.8 20.66 9.728Z" fill="#FEFFFD"/>
<path d="M43.532 34.08V33.28H46.86C46.668 32.4907 46.4653 31.712 46.252 30.944C46.06 30.1547 45.964 29.3547 45.964 28.544C45.964 27.6053 46.124 26.8053 46.444 26.144C46.764 25.4827 47.2013 24.9493 47.756 24.544C48.332 24.1173 48.9933 23.808 49.74 23.616C50.508 23.424 51.3187 23.328 52.172 23.328C52.876 23.328 53.6013 23.392 54.348 23.52C55.0947 23.648 55.8093 23.8507 56.492 24.128C57.196 24.384 57.8467 24.736 58.444 25.184C59.0413 25.6107 59.5427 26.1333 59.948 26.752L57.612 28.832C57.484 28.2987 57.292 27.7867 57.036 27.296C56.78 26.784 56.4707 26.336 56.108 25.952C55.7453 25.5467 55.3187 25.2267 54.828 24.992C54.3373 24.7573 53.7933 24.64 53.196 24.64C52.1293 24.64 51.2653 24.96 50.604 25.6C49.964 26.2187 49.644 27.0613 49.644 28.128C49.644 28.9813 49.7613 29.856 49.996 30.752C50.252 31.6267 50.4867 32.4693 50.7 33.28H53.964L55.02 36.128C54.4653 35.5733 53.836 35.1573 53.132 34.88C52.428 34.5813 51.7027 34.368 50.956 34.24C51.212 35.264 51.532 36.416 51.916 37.696C52.3 38.976 52.6627 40.288 53.004 41.632C53.3667 42.976 53.6653 44.288 53.9 45.568C54.156 46.8267 54.284 47.9573 54.284 48.96C54.284 50.112 53.932 51.0507 53.228 51.776C52.524 52.5227 51.5853 52.896 50.412 52.896C49.964 52.896 49.516 52.832 49.068 52.704C48.62 52.576 48.2467 52.3413 47.948 52C48.7373 52.128 49.3773 51.9573 49.868 51.488C50.38 51.04 50.636 50.4213 50.636 49.632C50.636 49.056 50.572 48.3627 50.444 47.552C50.316 46.72 50.1453 45.8347 49.932 44.896C49.7187 43.9573 49.4733 42.9867 49.196 41.984C48.94 40.9813 48.6733 40 48.396 39.04C48.14 38.08 47.8947 37.1733 47.66 36.32C47.4253 35.4667 47.2333 34.72 47.084 34.08H43.532ZM55.4518 41.216C55.4518 40.2347 55.6011 39.168 55.8997 38.016C56.2198 36.864 56.6464 35.712 57.1798 34.56C57.7344 33.3867 58.3958 32.2667 59.1638 31.2C59.9318 30.1333 60.7744 29.184 61.6918 28.352C62.6091 27.52 63.5798 26.8587 64.6038 26.368C65.6491 25.856 66.7158 25.6 67.8038 25.6C68.9344 25.6 69.8518 25.8027 70.5558 26.208C71.2811 26.6133 71.8571 27.1573 72.2838 27.84C72.7104 28.5227 72.9984 29.312 73.1478 30.208C73.3184 31.104 73.4038 32.032 73.4038 32.992C73.4038 33.9733 73.2331 35.0293 72.8918 36.16C72.5718 37.2693 72.1131 38.3787 71.5158 39.488C70.9398 40.5973 70.2464 41.664 69.4358 42.688C68.6464 43.712 67.7824 44.6187 66.8438 45.408C65.9264 46.1973 64.9451 46.8267 63.8998 47.296C62.8758 47.7653 61.8304 48 60.7638 48C59.7824 48 58.9504 47.808 58.2678 47.424C57.6064 47.04 57.0624 46.528 56.6358 45.888C56.2304 45.248 55.9318 44.5227 55.7398 43.712C55.5478 42.9013 55.4518 42.0693 55.4518 41.216ZM62.2678 45.12C63.4838 45.12 64.5931 44.7573 65.5958 44.032C66.5984 43.2853 67.4624 42.368 68.1878 41.28C68.9344 40.1707 69.5104 38.9867 69.9158 37.728C70.3211 36.4693 70.5238 35.3173 70.5238 34.272C70.5238 33.6107 70.4384 32.9493 70.2678 32.288C70.1184 31.6267 69.8731 31.0293 69.5318 30.496C69.1904 29.9627 68.7531 29.5253 68.2198 29.184C67.6864 28.8427 67.0358 28.672 66.2678 28.672C65.0518 28.672 63.9424 29.0453 62.9398 29.792C61.9371 30.5173 61.0624 31.4347 60.3158 32.544C59.5904 33.632 59.0251 34.8053 58.6198 36.064C58.2144 37.3227 58.0118 38.4747 58.0118 39.52C58.0118 40.1813 58.0864 40.8427 58.2358 41.504C58.4064 42.1653 58.6624 42.7627 59.0038 43.296C59.3451 43.8293 59.7824 44.2667 60.3158 44.608C60.8491 44.9493 61.4998 45.12 62.2678 45.12ZM66.0118 36.672L64.2517 38.432L62.5238 36.672L64.2517 34.944L66.0118 36.672ZM74.0763 48C74.2683 47.5307 74.4603 47.008 74.6523 46.432C74.8443 45.856 75.0149 45.2693 75.1643 44.672C75.3349 44.0533 75.4629 43.456 75.5483 42.88C75.6549 42.2827 75.7083 41.7387 75.7083 41.248V30.752C75.7083 30.3467 75.6763 29.92 75.6123 29.472C75.5696 29.0027 75.4949 28.544 75.3883 28.096C75.2816 27.6267 75.1429 27.1787 74.9723 26.752C74.8229 26.3253 74.6309 25.9413 74.3963 25.6H83.9963C85.9163 25.6 87.4203 26.1013 88.5083 27.104C89.6176 28.1067 90.1723 29.5787 90.1723 31.52C90.1723 32.352 89.9909 33.088 89.6283 33.728C89.2869 34.3467 88.8283 34.8693 88.2523 35.296C87.6976 35.7013 87.0576 36.032 86.3323 36.288C85.6283 36.5227 84.9029 36.672 84.1563 36.736C84.7963 37.184 85.3083 37.7493 85.6923 38.432C86.0763 39.1147 86.4176 39.7867 86.7163 40.448C87.0149 41.088 87.3349 41.6427 87.6763 42.112C88.0389 42.56 88.5083 42.784 89.0843 42.784C89.4469 42.784 89.7776 42.6667 90.0763 42.432C90.3749 42.1973 90.5563 41.8987 90.6203 41.536V47.488C90.3216 47.68 89.9376 47.8187 89.4683 47.904C88.9989 47.968 88.6043 48 88.2843 48C87.3669 48 86.6096 47.84 86.0123 47.52C85.4363 47.1787 84.9776 46.7413 84.6363 46.208C84.2949 45.6533 84.0389 45.0347 83.8683 44.352C83.6976 43.6693 83.5589 42.9653 83.4523 42.24C83.3669 41.5147 83.2816 40.8107 83.1963 40.128C83.1109 39.4453 82.9616 38.8373 82.7483 38.304C82.5563 37.7493 82.2789 37.312 81.9163 36.992C81.5749 36.672 81.0843 36.512 80.4443 36.512V35.744C81.2549 35.744 82.0016 35.648 82.6843 35.456C83.3669 35.264 83.9536 34.9653 84.4443 34.56C84.9349 34.1547 85.3189 33.6427 85.5963 33.024C85.8736 32.384 86.0123 31.6267 86.0123 30.752C86.0123 30.048 85.8949 29.44 85.6603 28.928C85.4256 28.3947 85.1056 27.968 84.7003 27.648C84.2949 27.3067 83.8149 27.0613 83.2603 26.912C82.7056 26.7413 82.0976 26.656 81.4363 26.656H79.6443V40.288C79.6443 40.8853 79.6869 41.536 79.7723 42.24C79.8789 42.9227 80.0176 43.6053 80.1883 44.288C80.3803 44.9707 80.6149 45.632 80.8923 46.272C81.1696 46.912 81.4896 47.488 81.8523 48H74.0763Z" fill="#FEFFFD"/>
<path d="M115.252 4.16C115.252 3.776 115.103 3.456 114.804 3.2H123.252C122.996 3.49866 122.868 3.88266 122.868 4.352C122.868 5.97333 123.06 7.552 123.444 9.088C123.871 10.624 124.255 12.16 124.596 13.696C125.279 16.896 125.94 20.0533 126.58 23.168C127.22 26.2827 127.881 29.44 128.564 32.64C128.777 33.664 129.076 34.9227 129.46 36.416C129.844 37.8667 130.292 39.3387 130.804 40.832C131.359 42.2827 131.977 43.6693 132.66 44.992C133.343 46.272 134.068 47.2747 134.836 48H119.988C120.116 47.616 120.223 47.0827 120.308 46.4C120.393 45.6747 120.436 44.9067 120.436 44.096C120.479 43.2853 120.5 42.496 120.5 41.728C120.5 40.96 120.5 40.3627 120.5 39.936C120.5 38.2293 120.457 36.544 120.372 34.88C120.329 33.1733 120.223 31.4667 120.052 29.76C117.876 30.2293 115.721 30.8907 113.588 31.744C111.455 32.5973 109.556 33.7707 107.892 35.264C107.807 35.9467 107.743 36.6293 107.7 37.312C107.657 37.952 107.636 38.6133 107.636 39.296C107.636 39.8933 107.657 40.6827 107.7 41.664C107.785 42.6453 107.956 43.6053 108.212 44.544C108.468 45.4827 108.852 46.2933 109.364 46.976C109.876 47.6587 110.559 48 111.412 48H96.5C96.756 47.4027 97.2253 46.336 97.908 44.8C98.5907 43.2213 99.38 41.3867 100.276 39.296C101.215 37.1627 102.239 34.8373 103.348 32.32C104.457 29.8027 105.567 27.264 106.676 24.704C107.785 22.144 108.852 19.6693 109.876 17.28C110.9 14.848 111.817 12.6933 112.628 10.816C113.439 8.93867 114.079 7.40267 114.548 6.208C115.017 4.97066 115.252 4.288 115.252 4.16ZM116.66 9.728C115.764 11.7333 114.868 13.7387 113.972 15.744C113.076 17.7493 112.223 19.776 111.412 21.824C110.601 23.8293 109.897 25.8987 109.3 28.032C108.703 30.1227 108.255 32.256 107.956 34.432L110.708 28.352H119.924C119.583 25.1947 119.092 22.08 118.452 19.008C117.855 15.8933 117.257 12.8 116.66 9.728Z" fill="#FEFFFD"/>
</g>
<defs>
<clipPath id="clip0_700_2376">
<rect width="135" height="64" fill="white" transform="translate(0.5)"/>
</clipPath>
</defs>
</svg>
