<svg width="135" height="64" viewBox="0 0 135 64" fill="none" xmlns="http://www.w3.org/2000/svg">
<g clip-path="url(#clip0_109_5120)">
<path d="M18.752 4.16C18.752 3.776 18.6027 3.456 18.304 3.2H26.752C26.496 3.49866 26.368 3.88266 26.368 4.352C26.368 5.97333 26.56 7.552 26.944 9.088C27.3707 10.624 27.7547 12.16 28.096 13.696C28.7787 16.896 29.44 20.0533 30.08 23.168C30.72 26.2827 31.3813 29.44 32.064 32.64C32.2773 33.664 32.576 34.9227 32.96 36.416C33.344 37.8667 33.792 39.3387 34.304 40.832C34.8587 42.2827 35.4773 43.6693 36.16 44.992C36.8427 46.272 37.568 47.2747 38.336 48H23.488C23.616 47.616 23.7227 47.0827 23.808 46.4C23.8933 45.6747 23.936 44.9067 23.936 44.096C23.9787 43.2853 24 42.496 24 41.728C24 40.96 24 40.3627 24 39.936C24 38.2293 23.9573 36.544 23.872 34.88C23.8293 33.1733 23.7227 31.4667 23.552 29.76C21.376 30.2293 19.2213 30.8907 17.088 31.744C14.9547 32.5973 13.056 33.7707 11.392 35.264C11.3067 35.9467 11.2427 36.6293 11.2 37.312C11.1573 37.952 11.136 38.6133 11.136 39.296C11.136 39.8933 11.1573 40.6827 11.2 41.664C11.2853 42.6453 11.456 43.6053 11.712 44.544C11.968 45.4827 12.352 46.2933 12.864 46.976C13.376 47.6587 14.0587 48 14.912 48H0C0.256 47.4027 0.725333 46.336 1.408 44.8C2.09067 43.2213 2.88 41.3867 3.776 39.296C4.71467 37.1627 5.73867 34.8373 6.848 32.32C7.95733 29.8027 9.06667 27.264 10.176 24.704C11.2853 22.144 12.352 19.6693 13.376 17.28C14.4 14.848 15.3173 12.6933 16.128 10.816C16.9387 8.93867 17.5787 7.40267 18.048 6.208C18.5173 4.97066 18.752 4.288 18.752 4.16ZM20.16 9.728C19.264 11.7333 18.368 13.7387 17.472 15.744C16.576 17.7493 15.7227 19.776 14.912 21.824C14.1013 23.8293 13.3973 25.8987 12.8 28.032C12.2027 30.1227 11.7547 32.256 11.456 34.432L14.208 28.352H23.424C23.0827 25.1947 22.592 22.08 21.952 19.008C21.3547 15.8933 20.7573 12.8 20.16 9.728Z" fill="#3B2C35"/>
<path d="M43.032 34.08V33.28H46.36C46.168 32.4907 45.9653 31.712 45.752 30.944C45.56 30.1547 45.464 29.3547 45.464 28.544C45.464 27.6053 45.624 26.8053 45.944 26.144C46.264 25.4827 46.7013 24.9493 47.256 24.544C47.832 24.1173 48.4933 23.808 49.24 23.616C50.008 23.424 50.8187 23.328 51.672 23.328C52.376 23.328 53.1013 23.392 53.848 23.52C54.5947 23.648 55.3093 23.8507 55.992 24.128C56.696 24.384 57.3467 24.736 57.944 25.184C58.5413 25.6107 59.0427 26.1333 59.448 26.752L57.112 28.832C56.984 28.2987 56.792 27.7867 56.536 27.296C56.28 26.784 55.9707 26.336 55.608 25.952C55.2453 25.5467 54.8187 25.2267 54.328 24.992C53.8373 24.7573 53.2933 24.64 52.696 24.64C51.6293 24.64 50.7653 24.96 50.104 25.6C49.464 26.2187 49.144 27.0613 49.144 28.128C49.144 28.9813 49.2613 29.856 49.496 30.752C49.752 31.6267 49.9867 32.4693 50.2 33.28H53.464L54.52 36.128C53.9653 35.5733 53.336 35.1573 52.632 34.88C51.928 34.5813 51.2027 34.368 50.456 34.24C50.712 35.264 51.032 36.416 51.416 37.696C51.8 38.976 52.1627 40.288 52.504 41.632C52.8667 42.976 53.1653 44.288 53.4 45.568C53.656 46.8267 53.784 47.9573 53.784 48.96C53.784 50.112 53.432 51.0507 52.728 51.776C52.024 52.5227 51.0853 52.896 49.912 52.896C49.464 52.896 49.016 52.832 48.568 52.704C48.12 52.576 47.7467 52.3413 47.448 52C48.2373 52.128 48.8773 51.9573 49.368 51.488C49.88 51.04 50.136 50.4213 50.136 49.632C50.136 49.056 50.072 48.3627 49.944 47.552C49.816 46.72 49.6453 45.8347 49.432 44.896C49.2187 43.9573 48.9733 42.9867 48.696 41.984C48.44 40.9813 48.1733 40 47.896 39.04C47.64 38.08 47.3947 37.1733 47.16 36.32C46.9253 35.4667 46.7333 34.72 46.584 34.08H43.032ZM54.9518 41.216C54.9518 40.2347 55.1011 39.168 55.3997 38.016C55.7198 36.864 56.1464 35.712 56.6798 34.56C57.2344 33.3867 57.8958 32.2667 58.6638 31.2C59.4318 30.1333 60.2744 29.184 61.1918 28.352C62.1091 27.52 63.0798 26.8587 64.1038 26.368C65.1491 25.856 66.2158 25.6 67.3038 25.6C68.4344 25.6 69.3518 25.8027 70.0558 26.208C70.7811 26.6133 71.3571 27.1573 71.7838 27.84C72.2104 28.5227 72.4984 29.312 72.6478 30.208C72.8184 31.104 72.9038 32.032 72.9038 32.992C72.9038 33.9733 72.7331 35.0293 72.3918 36.16C72.0718 37.2693 71.6131 38.3787 71.0158 39.488C70.4398 40.5973 69.7464 41.664 68.9358 42.688C68.1464 43.712 67.2824 44.6187 66.3438 45.408C65.4264 46.1973 64.4451 46.8267 63.3998 47.296C62.3758 47.7653 61.3304 48 60.2638 48C59.2824 48 58.4504 47.808 57.7678 47.424C57.1064 47.04 56.5624 46.528 56.1358 45.888C55.7304 45.248 55.4318 44.5227 55.2398 43.712C55.0478 42.9013 54.9518 42.0693 54.9518 41.216ZM61.7678 45.12C62.9838 45.12 64.0931 44.7573 65.0958 44.032C66.0984 43.2853 66.9624 42.368 67.6878 41.28C68.4344 40.1707 69.0104 38.9867 69.4158 37.728C69.8211 36.4693 70.0238 35.3173 70.0238 34.272C70.0238 33.6107 69.9384 32.9493 69.7678 32.288C69.6184 31.6267 69.3731 31.0293 69.0318 30.496C68.6904 29.9627 68.2531 29.5253 67.7198 29.184C67.1864 28.8427 66.5358 28.672 65.7678 28.672C64.5518 28.672 63.4424 29.0453 62.4398 29.792C61.4371 30.5173 60.5624 31.4347 59.8158 32.544C59.0904 33.632 58.5251 34.8053 58.1198 36.064C57.7144 37.3227 57.5118 38.4747 57.5118 39.52C57.5118 40.1813 57.5864 40.8427 57.7358 41.504C57.9064 42.1653 58.1624 42.7627 58.5038 43.296C58.8451 43.8293 59.2824 44.2667 59.8158 44.608C60.3491 44.9493 60.9998 45.12 61.7678 45.12ZM65.5118 36.672L63.7517 38.432L62.0238 36.672L63.7517 34.944L65.5118 36.672ZM73.5763 48C73.7683 47.5307 73.9603 47.008 74.1523 46.432C74.3443 45.856 74.5149 45.2693 74.6643 44.672C74.8349 44.0533 74.9629 43.456 75.0483 42.88C75.1549 42.2827 75.2083 41.7387 75.2083 41.248V30.752C75.2083 30.3467 75.1763 29.92 75.1123 29.472C75.0696 29.0027 74.9949 28.544 74.8883 28.096C74.7816 27.6267 74.6429 27.1787 74.4723 26.752C74.3229 26.3253 74.1309 25.9413 73.8963 25.6H83.4963C85.4163 25.6 86.9203 26.1013 88.0083 27.104C89.1176 28.1067 89.6723 29.5787 89.6723 31.52C89.6723 32.352 89.4909 33.088 89.1283 33.728C88.7869 34.3467 88.3283 34.8693 87.7523 35.296C87.1976 35.7013 86.5576 36.032 85.8323 36.288C85.1283 36.5227 84.4029 36.672 83.6563 36.736C84.2963 37.184 84.8083 37.7493 85.1923 38.432C85.5763 39.1147 85.9176 39.7867 86.2163 40.448C86.5149 41.088 86.8349 41.6427 87.1763 42.112C87.5389 42.56 88.0083 42.784 88.5843 42.784C88.9469 42.784 89.2776 42.6667 89.5763 42.432C89.8749 42.1973 90.0563 41.8987 90.1203 41.536V47.488C89.8216 47.68 89.4376 47.8187 88.9683 47.904C88.4989 47.968 88.1043 48 87.7843 48C86.8669 48 86.1096 47.84 85.5123 47.52C84.9363 47.1787 84.4776 46.7413 84.1363 46.208C83.7949 45.6533 83.5389 45.0347 83.3683 44.352C83.1976 43.6693 83.0589 42.9653 82.9523 42.24C82.8669 41.5147 82.7816 40.8107 82.6963 40.128C82.6109 39.4453 82.4616 38.8373 82.2483 38.304C82.0563 37.7493 81.7789 37.312 81.4163 36.992C81.0749 36.672 80.5843 36.512 79.9443 36.512V35.744C80.7549 35.744 81.5016 35.648 82.1843 35.456C82.8669 35.264 83.4536 34.9653 83.9443 34.56C84.4349 34.1547 84.8189 33.6427 85.0963 33.024C85.3736 32.384 85.5123 31.6267 85.5123 30.752C85.5123 30.048 85.3949 29.44 85.1603 28.928C84.9256 28.3947 84.6056 27.968 84.2003 27.648C83.7949 27.3067 83.3149 27.0613 82.7603 26.912C82.2056 26.7413 81.5976 26.656 80.9363 26.656H79.1443V40.288C79.1443 40.8853 79.1869 41.536 79.2723 42.24C79.3789 42.9227 79.5176 43.6053 79.6883 44.288C79.8803 44.9707 80.1149 45.632 80.3923 46.272C80.6696 46.912 80.9896 47.488 81.3523 48H73.5763Z" fill="#3B2C35"/>
<path d="M114.752 4.16C114.752 3.776 114.603 3.456 114.304 3.2H122.752C122.496 3.49866 122.368 3.88266 122.368 4.352C122.368 5.97333 122.56 7.552 122.944 9.088C123.371 10.624 123.755 12.16 124.096 13.696C124.779 16.896 125.44 20.0533 126.08 23.168C126.72 26.2827 127.381 29.44 128.064 32.64C128.277 33.664 128.576 34.9227 128.96 36.416C129.344 37.8667 129.792 39.3387 130.304 40.832C130.859 42.2827 131.477 43.6693 132.16 44.992C132.843 46.272 133.568 47.2747 134.336 48H119.488C119.616 47.616 119.723 47.0827 119.808 46.4C119.893 45.6747 119.936 44.9067 119.936 44.096C119.979 43.2853 120 42.496 120 41.728C120 40.96 120 40.3627 120 39.936C120 38.2293 119.957 36.544 119.872 34.88C119.829 33.1733 119.723 31.4667 119.552 29.76C117.376 30.2293 115.221 30.8907 113.088 31.744C110.955 32.5973 109.056 33.7707 107.392 35.264C107.307 35.9467 107.243 36.6293 107.2 37.312C107.157 37.952 107.136 38.6133 107.136 39.296C107.136 39.8933 107.157 40.6827 107.2 41.664C107.285 42.6453 107.456 43.6053 107.712 44.544C107.968 45.4827 108.352 46.2933 108.864 46.976C109.376 47.6587 110.059 48 110.912 48H96C96.256 47.4027 96.7253 46.336 97.408 44.8C98.0907 43.2213 98.88 41.3867 99.776 39.296C100.715 37.1627 101.739 34.8373 102.848 32.32C103.957 29.8027 105.067 27.264 106.176 24.704C107.285 22.144 108.352 19.6693 109.376 17.28C110.4 14.848 111.317 12.6933 112.128 10.816C112.939 8.93867 113.579 7.40267 114.048 6.208C114.517 4.97066 114.752 4.288 114.752 4.16ZM116.16 9.728C115.264 11.7333 114.368 13.7387 113.472 15.744C112.576 17.7493 111.723 19.776 110.912 21.824C110.101 23.8293 109.397 25.8987 108.8 28.032C108.203 30.1227 107.755 32.256 107.456 34.432L110.208 28.352H119.424C119.083 25.1947 118.592 22.08 117.952 19.008C117.355 15.8933 116.757 12.8 116.16 9.728Z" fill="#3B2C35"/>
</g>
<defs>
<clipPath id="clip0_109_5120">
<rect width="135" height="64" fill="white"/>
</clipPath>
</defs>
</svg>
