<svg width="18" height="19" viewBox="0 0 18 19" fill="none" xmlns="http://www.w3.org/2000/svg">
<path d="M9 16.25C10.7902 16.25 12.5071 15.5388 13.773 14.273C15.0388 13.0071 15.75 11.2902 15.75 9.5C15.75 7.70979 15.0388 5.9929 13.773 4.72703C12.5071 3.46116 10.7902 2.75 9 2.75C7.20979 2.75 5.4929 3.46116 4.22703 4.72703C2.96116 5.9929 2.25 7.70979 2.25 9.5C2.25 11.2902 2.96116 13.0071 4.22703 14.273C5.4929 15.5388 7.20979 16.25 9 16.25Z" stroke="#967BB6" stroke-width="1.33333" stroke-linecap="round" stroke-linejoin="round"/>
<path d="M11.25 12.5L9 6.5L6.75 12.5M10.5 11H7.5" stroke="#967BB6" stroke-width="1.33333" stroke-linecap="round" stroke-linejoin="round"/>
</svg>
