<svg width="48" height="48" viewBox="0 0 48 48" fill="none" xmlns="http://www.w3.org/2000/svg">
<path d="M41.5 30C41.5 30.3978 41.342 30.7794 41.0607 31.0607C40.7794 31.342 40.3978 31.5 40 31.5H35.5V34.5H38.5C38.8978 34.5 39.2794 34.658 39.5607 34.9393C39.842 35.2206 40 35.6022 40 36C40 36.3978 39.842 36.7794 39.5607 37.0607C39.2794 37.342 38.8978 37.5 38.5 37.5H35.5V40.5C35.5 40.8978 35.342 41.2794 35.0607 41.5607C34.7794 41.842 34.3978 42 34 42C33.6022 42 33.2206 41.842 32.9393 41.5607C32.658 41.2794 32.5 40.8978 32.5 40.5V30C32.5 29.6022 32.658 29.2206 32.9393 28.9393C33.2206 28.658 33.6022 28.5 34 28.5H40C40.3978 28.5 40.7794 28.658 41.0607 28.9393C41.342 29.2206 41.5 29.6022 41.5 30ZM16.75 33.75C16.75 35.1424 16.1969 36.4777 15.2123 37.4623C14.2277 38.4469 12.8924 39 11.5 39H10V40.5C10 40.8978 9.84196 41.2794 9.56066 41.5607C9.27936 41.842 8.89782 42 8.5 42C8.10218 42 7.72064 41.842 7.43934 41.5607C7.15804 41.2794 7 40.8978 7 40.5V30C7 29.6022 7.15804 29.2206 7.43934 28.9393C7.72064 28.658 8.10218 28.5 8.5 28.5H11.5C12.8924 28.5 14.2277 29.0531 15.2123 30.0377C16.1969 31.0223 16.75 32.3576 16.75 33.75ZM13.75 33.75C13.75 33.1533 13.5129 32.581 13.091 32.159C12.669 31.7371 12.0967 31.5 11.5 31.5H10V36H11.5C12.0967 36 12.669 35.7629 13.091 35.341C13.5129 34.919 13.75 34.3467 13.75 33.75ZM30.25 35.25C30.25 37.0402 29.5388 38.7571 28.273 40.023C27.0071 41.2888 25.2902 42 23.5 42H20.5C20.1022 42 19.7206 41.842 19.4393 41.5607C19.158 41.2794 19 40.8978 19 40.5V30C19 29.6022 19.158 29.2206 19.4393 28.9393C19.7206 28.658 20.1022 28.5 20.5 28.5H23.5C25.2902 28.5 27.0071 29.2112 28.273 30.477C29.5388 31.7429 30.25 33.4598 30.25 35.25ZM27.25 35.25C27.25 34.2554 26.8549 33.3016 26.1517 32.5983C25.4484 31.8951 24.4946 31.5 23.5 31.5H22V39H23.5C24.4946 39 25.4484 38.6049 26.1517 37.9017C26.8549 37.1984 27.25 36.2446 27.25 35.25ZM7 22.5V9C7 8.20435 7.31607 7.44129 7.87868 6.87868C8.44129 6.31607 9.20435 6 10 6H28C28.197 5.99985 28.3922 6.03851 28.5743 6.1138C28.7564 6.18908 28.9218 6.2995 29.0613 6.43875L39.5613 16.9388C39.7005 17.0782 39.8109 17.2436 39.8862 17.4257C39.9615 17.6078 40.0002 17.803 40 18V22.5C40 22.8978 39.842 23.2794 39.5607 23.5607C39.2794 23.842 38.8978 24 38.5 24C38.1022 24 37.7206 23.842 37.4393 23.5607C37.158 23.2794 37 22.8978 37 22.5V19.5H28C27.6022 19.5 27.2206 19.342 26.9393 19.0607C26.658 18.7794 26.5 18.3978 26.5 18V9H10V22.5C10 22.8978 9.84196 23.2794 9.56066 23.5607C9.27936 23.842 8.89782 24 8.5 24C8.10218 24 7.72064 23.842 7.43934 23.5607C7.15804 23.2794 7 22.8978 7 22.5ZM29.5 16.5H34.8794L29.5 11.1206V16.5Z" fill="#3B2C35"/>
</svg>
