<svg width="17" height="16" viewBox="0 0 17 16" fill="none" xmlns="http://www.w3.org/2000/svg">
<path fill-rule="evenodd" clip-rule="evenodd" d="M10.9712 7.52864C11.0962 7.65366 11.1664 7.8232 11.1664 7.99998C11.1664 8.17675 11.0962 8.34629 10.9712 8.47131L7.1999 12.2426C7.13841 12.3063 7.06484 12.3571 6.98351 12.392C6.90217 12.427 6.81469 12.4454 6.72617 12.4461C6.63765 12.4469 6.54986 12.43 6.46793 12.3965C6.386 12.363 6.31157 12.3135 6.24897 12.2509C6.18638 12.1883 6.13688 12.1139 6.10336 12.0319C6.06983 11.95 6.05297 11.8622 6.05374 11.7737C6.05451 11.6852 6.0729 11.5977 6.10784 11.5164C6.14277 11.435 6.19356 11.3615 6.25724 11.3L9.55724 7.99998L6.25724 4.69997C6.1358 4.57424 6.0686 4.40584 6.07012 4.23104C6.07164 4.05624 6.14175 3.88904 6.26536 3.76543C6.38896 3.64182 6.55617 3.57171 6.73097 3.57019C6.90577 3.56867 7.07417 3.63587 7.1999 3.75731L10.9712 7.52864Z" fill="#3B2C35" fill-opacity="0.7"/>
</svg>
