<svg width="15" height="11" viewBox="0 0 15 11" fill="none" xmlns="http://www.w3.org/2000/svg">
<path d="M4.49988 8.50005L1.58322 5.58338C1.50695 5.50618 1.41611 5.44489 1.31598 5.40305C1.21585 5.36122 1.10841 5.33968 0.999885 5.33968C0.891364 5.33968 0.783922 5.36122 0.683788 5.40305C0.583654 5.44489 0.49282 5.50618 0.416551 5.58338C0.339351 5.65965 0.278058 5.75048 0.236225 5.85062C0.194392 5.95075 0.172852 6.05819 0.172852 6.16671C0.172852 6.27523 0.194392 6.38268 0.236225 6.48281C0.278058 6.58294 0.339351 6.67378 0.416551 6.75005L3.90822 10.2417C4.23322 10.5667 4.75822 10.5667 5.08322 10.2417L13.9166 1.41671C13.9938 1.34044 14.055 1.24961 14.0969 1.14948C14.1387 1.04934 14.1603 0.941901 14.1603 0.83338C14.1603 0.724859 14.1387 0.617418 14.0969 0.517284C14.055 0.41715 13.9938 0.326316 13.9166 0.250047C13.8403 0.172847 13.7494 0.111554 13.6493 0.0697213C13.5492 0.0278883 13.4417 0.00634766 13.3332 0.00634766C13.2247 0.00634766 13.1173 0.0278883 13.0171 0.0697213C12.917 0.111554 12.8262 0.172847 12.7499 0.250047L4.49988 8.50005Z" fill="#6F7D60"/>
</svg>
