<svg width="14" height="15" viewBox="0 0 14 15" fill="none" xmlns="http://www.w3.org/2000/svg">
<path fill-rule="evenodd" clip-rule="evenodd" d="M3.843 10.444L3.649 12.779C3.64545 12.8197 3.6542 12.8606 3.67413 12.8962C3.69406 12.9319 3.72425 12.9608 3.76078 12.9791C3.79731 12.9974 3.8385 13.0043 3.87902 12.999C3.91953 12.9936 3.9575 12.9762 3.988 12.949L6.198 10.985L6.787 10.998L7 11C8.695 11 10.087 10.56 11.02 9.823C11.91 9.121 12.5 8.063 12.5 6.5C12.5 4.937 11.91 3.88 11.02 3.177C10.087 2.44 8.695 2 7 2C5.305 2 3.913 2.44 2.98 3.177C2.09 3.88 1.5 4.937 1.5 6.5C1.5 8.148 2.156 9.242 3.148 9.948L3.843 10.444ZM4.984 14.069L6.754 12.497C6.834 12.4997 6.916 12.5007 7 12.5C10.866 12.5 14 10.5 14 6.5C14 2.5 10.866 0.5 7 0.5C3.134 0.5 0 2.5 0 6.5C0 8.617 0.878 10.174 2.277 11.17L2.154 12.654C2.12578 12.9933 2.19987 13.3334 2.36672 13.6302C2.53357 13.927 2.78552 14.167 3.09009 14.3193C3.39465 14.4716 3.73785 14.5292 4.07542 14.4845C4.413 14.4399 4.72946 14.2952 4.984 14.069Z" fill="#967BB6"/>
</svg>
