<svg width="20" height="20" viewBox="0 0 20 20" fill="none" xmlns="http://www.w3.org/2000/svg">
<path fill-rule="evenodd" clip-rule="evenodd" d="M9.41071 6.91083C9.56698 6.75461 9.77891 6.66684 9.99988 6.66684C10.2208 6.66684 10.4328 6.75461 10.589 6.91083L15.3032 11.625C15.3828 11.7019 15.4463 11.7938 15.49 11.8955C15.5336 11.9972 15.5566 12.1065 15.5576 12.2172C15.5585 12.3278 15.5375 12.4375 15.4956 12.54C15.4537 12.6424 15.3918 12.7354 15.3135 12.8137C15.2353 12.8919 15.1423 12.9538 15.0398 12.9957C14.9374 13.0376 14.8277 13.0587 14.717 13.0577C14.6064 13.0567 14.497 13.0338 14.3954 12.9901C14.2937 12.9464 14.2017 12.8829 14.1249 12.8033L9.99988 8.67833L5.87488 12.8033C5.71771 12.9551 5.50721 13.0391 5.28871 13.0372C5.07021 13.0353 4.8612 12.9477 4.70669 12.7932C4.55219 12.6387 4.46455 12.4297 4.46265 12.2112C4.46075 11.9927 4.54474 11.7822 4.69654 11.625L9.41071 6.91083Z" fill="#967BB6"/>
</svg>
