<svg width="14" height="14" viewBox="0 0 14 14" fill="none" xmlns="http://www.w3.org/2000/svg">
<path fill-rule="evenodd" clip-rule="evenodd" d="M4.25 4.99705C4.05109 4.99705 3.86032 4.91803 3.71967 4.77738C3.57902 4.63672 3.5 4.44596 3.5 4.24705V3.50005C3.10218 3.50005 2.72064 3.65808 2.43934 3.93939C2.15804 4.22069 2 4.60222 2 5.00005V6.00005H12V5.00005C12 4.60222 11.842 4.22069 11.5607 3.93939C11.2794 3.65808 10.8978 3.50005 10.5 3.50005V4.25005C10.5 4.44896 10.421 4.63972 10.2803 4.78038C10.1397 4.92103 9.94891 5.00005 9.75 5.00005C9.55109 5.00005 9.36032 4.92103 9.21967 4.78038C9.07902 4.63972 9 4.44896 9 4.25005V3.50005H5V4.24705C5 4.44596 4.92098 4.63672 4.78033 4.77738C4.63968 4.91803 4.44891 4.99705 4.25 4.99705ZM9 2.00005H5V1.24805C5 1.04913 4.92098 0.858369 4.78033 0.717717C4.63968 0.577065 4.44891 0.498047 4.25 0.498047C4.05109 0.498047 3.86032 0.577065 3.71967 0.717717C3.57902 0.858369 3.5 1.04913 3.5 1.24805V2.00005C2.70435 2.00005 1.94129 2.31612 1.37868 2.87873C0.816071 3.44134 0.5 4.2044 0.5 5.00005V11C0.5 11.7957 0.816071 12.5588 1.37868 13.1214C1.94129 13.684 2.70435 14 3.5 14H10.5C11.2956 14 12.0587 13.684 12.6213 13.1214C13.1839 12.5588 13.5 11.7957 13.5 11V5.00005C13.5 4.2044 13.1839 3.44134 12.6213 2.87873C12.0587 2.31612 11.2956 2.00005 10.5 2.00005V1.25005C10.5 1.05113 10.421 0.860369 10.2803 0.719717C10.1397 0.579065 9.94891 0.500047 9.75 0.500047C9.55109 0.500047 9.36032 0.579065 9.21967 0.719717C9.07902 0.860369 9 1.05113 9 1.25005V2.00005ZM2 7.50005V11C2 11.3979 2.15804 11.7794 2.43934 12.0607C2.72064 12.342 3.10218 12.5 3.5 12.5H10.5C10.8978 12.5 11.2794 12.342 11.5607 12.0607C11.842 11.7794 12 11.3979 12 11V7.50005H2Z" fill="#967BB6"/>
</svg>
